<?xml version="1.0" encoding="utf-8"?>
<!-- Generator: Adobe Illustrator 16.0.0, SVG Export Plug-In . SVG Version: 6.00 Build 0)  -->
<!DOCTYPE svg PUBLIC "-//W3C//DTD SVG 1.1//EN" "http://www.w3.org/Graphics/SVG/1.1/DTD/svg11.dtd">
<svg version="1.1" xmlns="http://www.w3.org/2000/svg" xmlns:xlink="http://www.w3.org/1999/xlink" x="0px" y="0px" width="400px"
	 height="300px" viewBox="0 0 400 300" enable-background="new 0 0 400 300" xml:space="preserve">
<g id="Camada_1">
	<g>
		<path fill="#88B1AE" d="M67.479,245.111H63.68v-20.879c0-5.398-2.487-8.1-7.464-8.1c-2.656,0-5.485,0.718-8.479,2.152
			c0.632,1.433,0.948,3.121,0.948,5.061v21.766h-3.858v-20.879c0-5.398-2.487-8.1-7.464-8.1c-1.899,0-4.494,0.632-7.784,1.898
			c0.083,0.927,0.126,1.581,0.126,1.962v25.118h-3.857V220.12c0-0.803-0.127-2.172-0.381-4.115c5.482-2.15,9.618-3.226,12.401-3.226
			c3.585,0,6.327,0.973,8.224,2.91c4.05-1.938,7.57-2.91,10.566-2.91c7.214,0,10.82,3.523,10.82,10.566V245.111z M93.986,213.476
			l-10.567,32.455c-1.097,3.333-2.634,6.242-4.617,8.733c-2.15,2.739-4.555,4.512-7.213,5.313l-1.519-3.037
			c4.344-1.518,7.508-5.272,9.49-11.26c-0.337-0.044-0.632-0.149-0.886-0.319c-0.718-0.378-1.286-1.116-1.708-2.212l-11.703-29.674
			h4.363l10.82,28.533h0.127l9.3-28.533H93.986z"/>
		<path fill="#00526C" d="M138.472,241.622c0,7.069-3.023,12.51-9.067,16.326c-5.117,3.068-11.349,4.603-18.697,4.603
			c-7.257,0-14.93-1.534-23.022-4.603l4.884-13.117c6.509,2.79,12.092,4.186,16.743,4.186c7.067,0,10.604-2.558,10.604-7.673
			c0-3.255-2.652-6.141-7.954-8.65c-8.65-4.093-13.488-6.512-14.511-7.256c-5.303-3.907-7.953-9.116-7.953-15.627
			c0-6.605,2.932-11.767,8.791-15.488c4.836-3.07,10.51-4.606,17.021-4.606c7.535,0,14.233,1.397,20.094,4.187l-4.744,12.977
			c-5.676-2.14-10.792-3.209-15.35-3.209c-5.767,0-8.65,2.093-8.65,6.279c0,2.979,2.743,5.58,8.234,7.813
			c8.37,3.349,13.485,5.674,15.347,6.978C135.728,228.739,138.472,234.367,138.472,241.622z"/>
		<path fill="#00526C" d="M207.539,226.133c0,10.604-3.209,19.324-9.627,26.162c-6.419,6.837-14.885,10.255-25.396,10.255
			s-19.023-3.487-25.532-10.464c-6.327-6.697-9.488-15.349-9.488-25.953s3.209-19.325,9.627-26.16
			c6.418-6.838,14.882-10.258,25.394-10.258s18.978,3.42,25.396,10.258C204.33,206.808,207.539,215.529,207.539,226.133z
			 M188.98,226.274c0-6.047-1.21-11.023-3.629-14.93c-2.883-4.744-7.162-7.117-12.836-7.117s-9.953,2.327-12.835,6.977
			c-2.421,3.908-3.628,8.93-3.628,15.07c0,6.139,1.207,11.115,3.628,14.929c2.882,4.652,7.161,6.976,12.835,6.976
			s9.953-2.323,12.836-6.976C187.771,237.389,188.98,232.413,188.98,226.274z"/>
		<path fill="#00526C" d="M354.178,257.109c-11.908,3.628-21.815,5.441-29.721,5.441c-8.186,0-15.068-1.489-20.649-4.464
			c-7.07-3.813-10.604-9.396-10.604-16.743c0-8.093,3.719-13.998,11.162-17.72c2.975-1.488,9.951-3.442,20.93-5.861
			c7.441-1.673,11.163-4.047,11.163-7.117c0-4.277-3.908-6.418-11.721-6.418c-6.419,0-12.886,1.396-19.395,4.186l-5.722-12.695
			c8.742-3.999,17.904-6.002,27.487-6.002c7.905,0,14.14,1.771,18.696,5.303c4.93,3.908,7.396,9.721,7.396,17.442v35.859
			C353.201,250.087,353.523,253.016,354.178,257.109z M336.735,246.646c-0.187-1.209-0.277-2.094-0.277-2.652v-17.161
			c-1.396,1.394-4.373,2.604-8.931,3.626c-5.677,1.306-9.257,2.282-10.744,2.931c-3.441,1.584-5.163,3.816-5.163,6.696
			c0,5.677,4.325,8.513,12.978,8.513C328.595,248.598,332.643,247.949,336.735,246.646z"/>
		<path fill="#00526C" d="M385.379,260.039c-4.838,1.676-9.488,2.512-13.953,2.512c-10.233,0-15.349-4.836-15.349-14.511v-89.437
			h16.743v85.531c0,2.883,1.118,4.325,3.35,4.325c1.116,0,2.882-0.511,5.303-1.536L385.379,260.039z"/>
		<path fill="#88B1AE" d="M263.62,112.338l-101.252,7.884c-6.862,0-12.428,5.566-12.428,12.429l7.884,49.614
			c0,6.864,5.563,12.427,12.431,12.427l4.777,0.295c0,0,2.835,10.7-2.728,16.262c0,0,16.57-4.007,19.243-15.246l64.188,3.947
			c6.861,0,12.427-5.566,12.427-12.428l7.886-62.756C276.049,117.903,270.482,112.338,263.62,112.338z"/>
		<path fill="#88B1AE" d="M159.435,91.005c0-0.661-0.005-1.315-0.015-1.962c-0.005-0.214-0.012-0.423-0.017-0.636
			c-0.01-0.43-0.017-0.859-0.033-1.283c-0.008-0.267-0.022-0.528-0.034-0.793c-0.014-0.358-0.029-0.72-0.048-1.075
			c-0.017-0.296-0.038-0.586-0.058-0.879c-0.021-0.316-0.04-0.632-0.064-0.944c-0.023-0.313-0.053-0.619-0.081-0.926
			c-0.026-0.284-0.05-0.569-0.079-0.85c-0.034-0.324-0.072-0.643-0.107-0.961c-0.032-0.257-0.061-0.516-0.095-0.769
			c-0.04-0.331-0.089-0.656-0.136-0.98c-0.036-0.235-0.069-0.471-0.105-0.704c-0.055-0.334-0.112-0.665-0.17-0.994
			c-0.041-0.214-0.077-0.429-0.118-0.641c-0.066-0.34-0.136-0.675-0.208-1.01c-0.04-0.191-0.081-0.384-0.124-0.575
			c-0.079-0.344-0.162-0.684-0.249-1.022c-0.043-0.172-0.087-0.345-0.132-0.516c-0.094-0.346-0.192-0.688-0.292-1.028
			c-0.046-0.154-0.091-0.307-0.139-0.46c-0.107-0.349-0.221-0.694-0.339-1.036c-0.048-0.134-0.093-0.269-0.141-0.402
			c-0.124-0.351-0.256-0.698-0.391-1.04c-0.045-0.117-0.093-0.231-0.141-0.346c-0.145-0.354-0.295-0.704-0.451-1.049
			c-0.043-0.095-0.086-0.19-0.132-0.285c-0.164-0.358-0.337-0.711-0.517-1.059c-0.038-0.073-0.077-0.144-0.114-0.217
			c-0.192-0.364-0.389-0.723-0.598-1.076c-0.028-0.049-0.058-0.095-0.086-0.144c-0.22-0.372-0.447-0.739-0.688-1.098
			c-0.012-0.02-0.026-0.039-0.037-0.059c-4.321-6.476-11.454-10.792-22.824-12.592c-16.741-2.649-33.723-3.059-50.579-4.592
			c-10.725-0.975-24.652-2.013-32.362,7.086c-1.743,2.059-3.339,4.578-4.751,7.42c-0.003,0.002-0.003,0.004-0.003,0.006
			c-0.208,0.417-0.409,0.839-0.607,1.268c-0.006,0.012-0.013,0.024-0.018,0.035c-0.193,0.422-0.386,0.851-0.572,1.285
			c-0.01,0.019-0.018,0.039-0.024,0.058c-0.184,0.427-0.361,0.858-0.536,1.296c-0.014,0.031-0.026,0.062-0.038,0.092
			c-0.17,0.429-0.335,0.862-0.498,1.3c-0.018,0.041-0.031,0.083-0.048,0.123c-0.159,0.429-0.313,0.863-0.463,1.3
			c-0.017,0.054-0.035,0.108-0.055,0.162c-0.146,0.427-0.287,0.859-0.426,1.295c-0.022,0.065-0.041,0.131-0.063,0.197
			c-0.134,0.426-0.263,0.855-0.39,1.289c-0.024,0.078-0.045,0.156-0.069,0.235c-0.12,0.421-0.24,0.846-0.354,1.274
			c-0.024,0.093-0.051,0.188-0.074,0.281c-0.111,0.416-0.215,0.833-0.318,1.255c-0.026,0.106-0.054,0.213-0.076,0.32
			c-0.099,0.411-0.194,0.823-0.289,1.236c-0.025,0.122-0.052,0.243-0.079,0.365c-0.085,0.403-0.169,0.808-0.25,1.214
			c-0.027,0.134-0.054,0.269-0.079,0.403c-0.074,0.396-0.148,0.792-0.221,1.191c-0.026,0.149-0.05,0.3-0.076,0.45
			c-0.064,0.384-0.127,0.769-0.188,1.155c-0.026,0.167-0.048,0.335-0.073,0.503c-0.054,0.372-0.108,0.744-0.157,1.119
			c-0.023,0.179-0.045,0.359-0.066,0.54c-0.046,0.364-0.089,0.727-0.13,1.092c-0.019,0.191-0.037,0.383-0.058,0.574
			c-0.035,0.354-0.068,0.708-0.1,1.063c-0.017,0.204-0.031,0.408-0.048,0.612c-0.026,0.343-0.054,0.687-0.074,1.03
			c-0.013,0.217-0.024,0.433-0.037,0.648c-0.017,0.332-0.033,0.665-0.047,0.996c-0.01,0.228-0.015,0.455-0.02,0.682
			c-0.01,0.32-0.022,0.64-0.024,0.959c-0.004,0.241-0.004,0.481-0.004,0.722c-0.003,0.306-0.005,0.612-0.003,0.917
			c0.003,0.25,0.013,0.5,0.017,0.75c0.005,0.294,0.011,0.589,0.02,0.883c0.01,0.262,0.024,0.522,0.038,0.783
			c0.013,0.281,0.023,0.561,0.042,0.839c0.017,0.272,0.037,0.542,0.059,0.813c0.02,0.267,0.036,0.534,0.06,0.8
			c0.024,0.282,0.058,0.561,0.087,0.842c0.026,0.252,0.048,0.504,0.076,0.754c0.039,0.313,0.082,0.623,0.125,0.934
			c0.028,0.215,0.053,0.431,0.084,0.645c0.076,0.522,0.161,1.041,0.254,1.555c3.768,21.104,22.744,27.385,41.849,28.217
			c14.552,0.63,32.411,2.412,48.162-0.406c4.014,11.171,20.307,9.387,20.307,9.387c-6.354-3.906-7.735-9.263-7.831-12.91
			c1.524-0.625,3.015-1.314,4.452-2.089C156.012,117.429,159.428,103.656,159.435,91.005z"/>
		<path fill="#88B1AE" d="M251.004,82.277c0.003-0.005,0.006-0.01,0.008-0.016l0,0c3.292-7.954,4.423-16.638,3.096-24.919
			c-1.072-6.712-3.755-13.155-8.195-18.729c-10.475-13.156-29.941-19.31-46.636-15.686c0,0,0,0,0,0c0,0-0.003,0-0.003,0.001
			c-0.704,0.153-1.402,0.322-2.095,0.51c-0.005,0.001-0.011,0.002-0.013,0.003c-0.683,0.185-1.36,0.388-2.03,0.606
			c-0.017,0.006-0.033,0.011-0.05,0.016c-0.639,0.209-1.268,0.437-1.893,0.679c-0.051,0.019-0.101,0.034-0.148,0.054
			c-0.583,0.227-1.155,0.472-1.725,0.727c-0.089,0.04-0.182,0.075-0.271,0.116c-0.527,0.24-1.044,0.499-1.559,0.763
			c-0.126,0.065-0.257,0.122-0.381,0.189c-0.472,0.25-0.935,0.519-1.399,0.789c-0.157,0.093-0.32,0.178-0.479,0.273
			c-0.441,0.267-0.869,0.554-1.3,0.84c-0.169,0.113-0.344,0.216-0.511,0.333c-0.592,0.409-1.172,0.835-1.739,1.282
			c-19.332,15.212-33.037,50.564-10.183,66.91c2.57,1.838,5.494,3.429,8.664,4.76c-0.826,3.847-2.705,10.287-6.354,12.726
			c0,0,13.709,1.053,18.865-9.043c20.34,3.777,44.485-1.297,53.861-18.081c0.42-0.754,0.813-1.521,1.193-2.294
			c0.083-0.169,0.163-0.337,0.244-0.507C250.336,83.819,250.684,83.053,251.004,82.277z"/>
		<path fill="#00526C" d="M266.416,257.667c-7.255,3.257-14.42,4.884-21.488,4.884c-10.882,0-19.93-3.348-27.136-10.047
			c-7.212-6.696-10.813-15.485-10.813-26.37c0-10.79,3.37-19.555,10.115-26.302c6.742-6.741,15.509-10.116,26.3-10.116
			c7.813,0,15.487,1.629,23.022,4.886l-5.022,13.534c-6.605-2.604-12.279-3.908-17.022-3.908c-5.954,0-10.699,2.072-14.231,6.21
			c-3.537,4.141-5.303,9.231-5.303,15.279c0,6.325,1.929,11.628,5.791,15.905c3.858,4.279,8.95,6.418,15.277,6.418
			c4.187,0,9.396-1.161,15.627-3.487L266.416,257.667z"/>
		<path fill="#00526C" d="M290.135,167.393c0,2.883-1,5.233-3,7.045c-2.001,1.813-4.443,2.721-7.324,2.721
			c-2.887,0-5.281-0.907-7.188-2.721c-1.906-1.812-2.859-4.162-2.859-7.045c0-2.791,0.953-5.14,2.859-7.047
			c1.906-1.905,4.301-2.86,7.188-2.86c2.79,0,5.209,0.955,7.254,2.86C289.109,162.253,290.135,164.602,290.135,167.393z
			 M288.461,261.016h-16.743v-69.765h16.743V261.016z"/>
	</g>
</g>
<g id="Camada_2" display="none">
</g>
</svg>
