<?xml version="1.0" encoding="utf-8"?>
<!-- Generator: Adobe Illustrator 16.0.0, SVG Export Plug-In . SVG Version: 6.00 Build 0)  -->
<!DOCTYPE svg PUBLIC "-//W3C//DTD SVG 1.1//EN" "http://www.w3.org/Graphics/SVG/1.1/DTD/svg11.dtd">
<svg version="1.1" xmlns="http://www.w3.org/2000/svg" xmlns:xlink="http://www.w3.org/1999/xlink" x="0px" y="0px"
	 width="566.443px" height="177.181px" viewBox="0 0 566.443 177.181" enable-background="new 0 0 566.443 177.181"
	 xml:space="preserve">
<g id="Camada_1">
	<g>
		<g>
			<path fill="#88B1AE" d="M170.813,89.845l-69.037,5.375c-4.68,0-8.475,3.795-8.475,8.474l5.375,33.83
				c0,4.68,3.795,8.473,8.477,8.473l3.258,0.201c0,0,1.932,7.295-1.859,11.088c0,0,11.297-2.732,13.119-10.395l43.768,2.691
				c4.678,0,8.473-3.797,8.473-8.475l5.377-42.79C179.287,93.64,175.492,89.845,170.813,89.845z"/>
			<path fill="#88B1AE" d="M99.775,75.3c0-0.451-0.004-0.897-0.012-1.338c-0.002-0.146-0.008-0.289-0.01-0.434
				c-0.008-0.293-0.012-0.586-0.023-0.875c-0.006-0.182-0.016-0.36-0.023-0.541c-0.01-0.244-0.02-0.491-0.033-0.733
				c-0.01-0.202-0.025-0.399-0.039-0.6c-0.014-0.215-0.027-0.431-0.043-0.644s-0.037-0.422-0.057-0.631
				c-0.018-0.194-0.033-0.388-0.053-0.58c-0.023-0.221-0.049-0.438-0.074-0.655c-0.021-0.175-0.041-0.352-0.064-0.524
				c-0.027-0.226-0.061-0.447-0.092-0.668c-0.025-0.16-0.047-0.321-0.072-0.48c-0.037-0.228-0.076-0.453-0.115-0.678
				c-0.029-0.146-0.053-0.292-0.08-0.437c-0.047-0.232-0.094-0.46-0.143-0.688c-0.027-0.131-0.055-0.262-0.084-0.392
				c-0.055-0.235-0.111-0.466-0.17-0.697c-0.029-0.117-0.061-0.235-0.09-0.352c-0.064-0.236-0.133-0.469-0.199-0.701
				c-0.031-0.105-0.063-0.209-0.096-0.313c-0.072-0.238-0.15-0.474-0.23-0.707c-0.033-0.092-0.063-0.183-0.096-0.274
				c-0.084-0.239-0.174-0.476-0.266-0.709c-0.031-0.08-0.064-0.158-0.098-0.236c-0.098-0.242-0.199-0.48-0.307-0.715
				c-0.029-0.064-0.059-0.129-0.09-0.194c-0.111-0.244-0.23-0.485-0.352-0.722c-0.027-0.05-0.053-0.098-0.078-0.148
				c-0.131-0.248-0.266-0.493-0.408-0.733c-0.02-0.033-0.039-0.065-0.059-0.098c-0.15-0.254-0.305-0.504-0.469-0.749
				c-0.008-0.014-0.018-0.026-0.025-0.04c-2.945-4.416-7.811-7.358-15.563-8.586c-11.414-1.806-22.994-2.085-34.486-3.131
				c-7.313-0.665-16.809-1.373-22.066,4.832c-1.188,1.403-2.277,3.122-3.24,5.059c-0.002,0.001-0.002,0.002-0.002,0.004
				c-0.141,0.284-0.277,0.572-0.414,0.865c-0.004,0.008-0.008,0.016-0.012,0.024c-0.131,0.288-0.262,0.58-0.389,0.876
				c-0.008,0.013-0.014,0.026-0.018,0.04c-0.125,0.291-0.246,0.585-0.365,0.883c-0.01,0.021-0.018,0.042-0.025,0.063
				c-0.117,0.292-0.229,0.587-0.34,0.886c-0.012,0.028-0.021,0.056-0.033,0.084c-0.109,0.292-0.213,0.588-0.316,0.887
				c-0.01,0.037-0.023,0.073-0.037,0.11c-0.1,0.292-0.195,0.586-0.289,0.883c-0.016,0.045-0.029,0.089-0.045,0.134
				c-0.09,0.291-0.178,0.583-0.266,0.879c-0.016,0.053-0.029,0.106-0.047,0.161c-0.082,0.287-0.164,0.577-0.242,0.869
				c-0.016,0.063-0.033,0.128-0.049,0.192c-0.076,0.284-0.146,0.568-0.219,0.856c-0.018,0.072-0.035,0.145-0.051,0.218
				c-0.068,0.28-0.133,0.561-0.197,0.843c-0.018,0.083-0.035,0.166-0.055,0.249c-0.057,0.274-0.115,0.55-0.17,0.828
				c-0.02,0.091-0.037,0.183-0.055,0.275c-0.049,0.27-0.1,0.54-0.15,0.812c-0.018,0.102-0.033,0.204-0.051,0.307
				c-0.045,0.262-0.088,0.524-0.129,0.787c-0.018,0.114-0.031,0.229-0.049,0.343c-0.037,0.254-0.074,0.507-0.107,0.763
				c-0.016,0.122-0.031,0.245-0.045,0.368c-0.031,0.248-0.061,0.496-0.09,0.745c-0.012,0.13-0.025,0.261-0.039,0.392
				c-0.023,0.241-0.047,0.483-0.068,0.725c-0.01,0.139-0.02,0.278-0.031,0.417c-0.018,0.234-0.037,0.468-0.051,0.703
				c-0.01,0.148-0.018,0.295-0.025,0.442c-0.012,0.227-0.023,0.453-0.031,0.679c-0.008,0.155-0.012,0.31-0.014,0.465
				c-0.008,0.218-0.016,0.436-0.018,0.654c-0.002,0.165-0.002,0.328-0.002,0.492c-0.002,0.209-0.004,0.417-0.002,0.625
				c0.002,0.17,0.008,0.341,0.012,0.511c0.002,0.201,0.006,0.402,0.012,0.603c0.008,0.178,0.018,0.356,0.027,0.534
				c0.008,0.191,0.016,0.382,0.027,0.572c0.012,0.186,0.025,0.369,0.041,0.554c0.014,0.182,0.023,0.364,0.041,0.545
				c0.016,0.192,0.039,0.383,0.059,0.574c0.018,0.172,0.033,0.344,0.053,0.514c0.025,0.213,0.055,0.425,0.084,0.637
				c0.02,0.146,0.037,0.294,0.057,0.439c0.053,0.356,0.111,0.71,0.174,1.061c2.568,14.39,15.508,18.673,28.535,19.239
				c9.922,0.43,22.098,1.645,32.838-0.277c2.736,7.617,13.846,6.4,13.846,6.4c-4.332-2.662-5.273-6.316-5.34-8.803
				c1.041-0.426,2.057-0.896,3.037-1.424C97.441,93.316,99.77,83.926,99.775,75.3z"/>
			<path fill="#88B1AE" d="M162.211,69.349c0.002-0.003,0.004-0.007,0.004-0.011l0,0c2.246-5.423,3.016-11.344,2.111-16.991
				c-0.73-4.576-2.561-8.969-5.588-12.771c-7.143-8.97-20.416-13.166-31.799-10.695l0,0c0,0-0.002,0-0.002,0
				c-0.479,0.104-0.955,0.22-1.428,0.348c-0.004,0.001-0.008,0.002-0.008,0.002c-0.467,0.126-0.928,0.264-1.385,0.413
				c-0.012,0.004-0.023,0.007-0.033,0.011c-0.436,0.143-0.865,0.298-1.291,0.463c-0.035,0.013-0.068,0.023-0.102,0.037
				c-0.398,0.155-0.787,0.322-1.176,0.495c-0.061,0.027-0.123,0.051-0.186,0.079c-0.359,0.164-0.711,0.34-1.063,0.521
				c-0.086,0.044-0.174,0.083-0.26,0.129c-0.32,0.17-0.637,0.354-0.953,0.538c-0.107,0.063-0.219,0.121-0.326,0.187
				c-0.301,0.182-0.594,0.378-0.887,0.573c-0.115,0.077-0.234,0.147-0.348,0.227c-0.404,0.278-0.799,0.569-1.186,0.874
				c-13.182,10.373-22.527,34.477-6.943,45.622c1.752,1.253,3.746,2.338,5.906,3.246c-0.563,2.623-1.844,7.014-4.332,8.677
				c0,0,9.348,0.718,12.863-6.167c13.869,2.576,30.332-0.884,36.725-12.328c0.287-0.514,0.555-1.037,0.814-1.564
				c0.057-0.115,0.111-0.23,0.166-0.346C161.754,70.399,161.992,69.877,162.211,69.349z"/>
		</g>
		<g>
			<path fill="#88B1AE" d="M232.709,107.519h-3.799V86.641c0-5.398-2.486-8.1-7.463-8.1c-2.656,0-5.486,0.718-8.479,2.152
				c0.631,1.433,0.947,3.121,0.947,5.061v21.765h-3.857V86.641c0-5.398-2.488-8.1-7.465-8.1c-1.898,0-4.494,0.632-7.783,1.898
				c0.082,0.927,0.125,1.581,0.125,1.962v25.117h-3.857v-24.99c0-0.803-0.127-2.172-0.381-4.115
				c5.482-2.15,9.619-3.226,12.402-3.226c3.584,0,6.326,0.973,8.223,2.91c4.051-1.938,7.57-2.91,10.566-2.91
				c7.215,0,10.82,3.523,10.82,10.566V107.519z M259.217,75.885l-10.566,32.454c-1.098,3.334-2.635,6.242-4.617,8.734
				c-2.15,2.738-4.555,4.512-7.213,5.313l-1.52-3.037c4.344-1.518,7.508-5.271,9.49-11.26c-0.336-0.043-0.631-0.148-0.885-0.318
				c-0.719-0.379-1.287-1.117-1.709-2.213l-11.703-29.673h4.363l10.82,28.532h0.127l9.301-28.532H259.217z"/>
			<path fill="#00526C" d="M303.703,104.031c0,7.068-3.023,12.51-9.068,16.326c-5.117,3.068-11.348,4.602-18.697,4.602
				c-7.256,0-14.93-1.533-23.021-4.602l4.883-13.117c6.51,2.789,12.092,4.186,16.744,4.186c7.066,0,10.604-2.559,10.604-7.674
				c0-3.254-2.652-6.14-7.953-8.649c-8.65-4.093-13.488-6.512-14.512-7.256c-5.303-3.907-7.953-9.116-7.953-15.627
				c0-6.605,2.932-11.767,8.791-15.488c4.836-3.07,10.51-4.606,17.021-4.606c7.535,0,14.232,1.397,20.094,4.187l-4.744,12.977
				c-5.676-2.14-10.793-3.209-15.35-3.209c-5.768,0-8.65,2.093-8.65,6.279c0,2.979,2.742,5.58,8.234,7.813
				c8.369,3.349,13.484,5.674,15.346,6.978C300.959,91.148,303.703,96.776,303.703,104.031z"/>
			<path fill="#00526C" d="M372.77,88.542c0,10.604-3.209,19.324-9.627,26.162c-6.418,6.836-14.885,10.254-25.396,10.254
				s-19.023-3.486-25.531-10.463c-6.328-6.697-9.488-15.349-9.488-25.953s3.209-19.325,9.627-26.16
				c6.418-6.838,14.881-10.258,25.393-10.258s18.979,3.42,25.396,10.258C369.561,69.217,372.77,77.938,372.77,88.542z
				 M354.211,88.683c0-6.047-1.209-11.023-3.629-14.93c-2.883-4.744-7.162-7.117-12.836-7.117s-9.953,2.327-12.834,6.977
				c-2.422,3.908-3.629,8.93-3.629,15.07c0,6.139,1.207,11.115,3.629,14.928c2.881,4.652,7.16,6.977,12.834,6.977
				s9.953-2.324,12.836-6.977C353.002,99.798,354.211,94.822,354.211,88.683z"/>
			<path fill="#00526C" d="M519.408,119.517c-11.908,3.629-21.814,5.441-29.721,5.441c-8.186,0-15.068-1.488-20.648-4.463
				c-7.07-3.813-10.605-9.396-10.605-16.744c0-8.092,3.719-13.997,11.162-17.719c2.975-1.488,9.951-3.442,20.93-5.861
				c7.441-1.673,11.164-4.047,11.164-7.117c0-4.277-3.908-6.418-11.721-6.418c-6.42,0-12.887,1.396-19.395,4.186l-5.723-12.695
				c8.742-3.999,17.904-6.002,27.488-6.002c7.904,0,14.139,1.771,18.695,5.303c4.93,3.908,7.396,9.721,7.396,17.442v35.858
				C518.432,112.496,518.754,115.425,519.408,119.517z M501.967,109.054c-0.188-1.209-0.277-2.094-0.277-2.652v-17.16
				c-1.396,1.394-4.373,2.604-8.932,3.626c-5.676,1.306-9.256,2.282-10.744,2.931c-3.441,1.584-5.162,3.816-5.162,6.696
				c0,5.677,4.324,8.513,12.977,8.513C493.826,111.007,497.873,110.357,501.967,109.054z"/>
			<path fill="#00526C" d="M550.609,122.447c-4.838,1.676-9.488,2.512-13.953,2.512c-10.232,0-15.348-4.836-15.348-14.51V21.012
				h16.742v85.53c0,2.883,1.119,4.326,3.35,4.326c1.117,0,2.883-0.512,5.303-1.537L550.609,122.447z"/>
			<path fill="#00526C" d="M431.646,120.076c-7.254,3.256-14.42,4.883-21.488,4.883c-10.881,0-19.93-3.348-27.135-10.047
				c-7.213-6.695-10.814-15.484-10.814-26.369c0-10.79,3.371-19.555,10.115-26.302c6.742-6.741,15.51-10.116,26.301-10.116
				c7.813,0,15.486,1.629,23.021,4.886l-5.021,13.534c-6.605-2.604-12.279-3.908-17.023-3.908c-5.953,0-10.699,2.072-14.23,6.21
				c-3.537,4.141-5.303,9.231-5.303,15.279c0,6.325,1.928,11.628,5.791,15.905c3.857,4.279,8.949,6.418,15.277,6.418
				c4.186,0,9.395-1.162,15.627-3.488L431.646,120.076z"/>
			<path fill="#00526C" d="M455.365,29.802c0,2.883-1,5.233-3,7.045c-2,1.813-4.443,2.721-7.324,2.721
				c-2.887,0-5.281-0.907-7.188-2.721c-1.906-1.812-2.859-4.162-2.859-7.045c0-2.791,0.953-5.14,2.859-7.047
				c1.906-1.905,4.301-2.86,7.188-2.86c2.791,0,5.209,0.955,7.254,2.86C454.34,24.663,455.365,27.011,455.365,29.802z
				 M453.691,123.425h-16.742V53.661h16.742V123.425z"/>
		</g>
	</g>
</g>
<g id="Camada_2" display="none">
</g>
</svg>
