<svg width="567" height="178" viewBox="0 0 567 178" fill="none" xmlns="http://www.w3.org/2000/svg">
<path d="M170.813 89.845L101.776 95.22C97.0958 95.22 93.3008 99.015 93.3008 103.694L98.6758 137.524C98.6758 142.204 102.471 145.997 107.153 145.997L110.411 146.198C110.411 146.198 112.343 153.493 108.552 157.286C108.552 157.286 119.849 154.554 121.671 146.891L165.439 149.582C170.117 149.582 173.912 145.785 173.912 141.107L179.289 98.317C179.287 93.64 175.492 89.845 170.813 89.845Z" fill="#88B1AE"/>
<path d="M99.7749 75.3C99.7749 74.849 99.7709 74.403 99.7629 73.962C99.7609 73.816 99.7549 73.673 99.7529 73.528C99.7449 73.235 99.7409 72.942 99.7299 72.653C99.7239 72.471 99.7139 72.293 99.7069 72.112C99.6969 71.868 99.6869 71.621 99.6739 71.379C99.6639 71.177 99.6489 70.98 99.6349 70.779C99.6209 70.564 99.6079 70.348 99.5919 70.135C99.5759 69.922 99.5549 69.713 99.5349 69.504C99.5169 69.31 99.5019 69.116 99.4819 68.924C99.4589 68.703 99.4329 68.486 99.4079 68.269C99.3869 68.094 99.3669 67.917 99.3439 67.745C99.3169 67.519 99.2829 67.298 99.2519 67.077C99.2269 66.917 99.2049 66.756 99.1799 66.597C99.1429 66.369 99.1039 66.144 99.0649 65.919C99.0359 65.773 99.0119 65.627 98.9849 65.482C98.9379 65.25 98.8909 65.022 98.8419 64.794C98.8149 64.663 98.7869 64.532 98.7579 64.402C98.7029 64.167 98.6469 63.936 98.5879 63.705C98.5589 63.588 98.5269 63.47 98.4979 63.353C98.4339 63.117 98.3649 62.884 98.2989 62.652C98.2679 62.547 98.2359 62.443 98.2029 62.339C98.1309 62.101 98.0529 61.865 97.9729 61.632C97.9399 61.54 97.9099 61.449 97.8769 61.358C97.7929 61.119 97.7029 60.882 97.6109 60.649C97.5799 60.569 97.5469 60.491 97.5129 60.413C97.4149 60.171 97.3139 59.933 97.2059 59.698C97.1769 59.634 97.1469 59.569 97.1159 59.504C97.0049 59.26 96.8859 59.019 96.7639 58.782C96.7369 58.732 96.7109 58.684 96.6859 58.634C96.5549 58.386 96.4199 58.141 96.2779 57.901C96.2579 57.868 96.2389 57.836 96.2189 57.803C96.0689 57.549 95.9139 57.299 95.7499 57.054C95.7419 57.04 95.7319 57.028 95.7249 57.014C92.7799 52.598 87.9139 49.656 80.1619 48.428C68.7479 46.622 57.1679 46.343 45.6759 45.297C38.3629 44.632 28.8669 43.924 23.6099 50.129C22.4219 51.532 21.3329 53.251 20.3699 55.188C20.3679 55.189 20.3679 55.19 20.3679 55.192C20.2269 55.476 20.0909 55.764 19.9539 56.057C19.9499 56.065 19.9459 56.073 19.9419 56.081C19.8109 56.369 19.6799 56.661 19.5529 56.957C19.5449 56.97 19.5389 56.983 19.5349 56.997C19.4099 57.288 19.2889 57.582 19.1699 57.88C19.1599 57.901 19.1519 57.922 19.1449 57.943C19.0279 58.235 18.9159 58.53 18.8049 58.829C18.7929 58.857 18.7839 58.885 18.7719 58.913C18.6629 59.205 18.5589 59.501 18.4559 59.8C18.4459 59.837 18.4329 59.873 18.4189 59.91C18.3189 60.202 18.2239 60.496 18.1299 60.793C18.1139 60.838 18.1009 60.882 18.0849 60.927C17.9949 61.218 17.9069 61.51 17.8189 61.806C17.8029 61.859 17.7899 61.912 17.7719 61.967C17.6899 62.254 17.6079 62.544 17.5299 62.836C17.5139 62.899 17.4969 62.964 17.4809 63.028C17.4049 63.312 17.3349 63.596 17.2619 63.884C17.2439 63.956 17.2269 64.029 17.2109 64.102C17.1429 64.382 17.0779 64.663 17.0139 64.945C16.9959 65.028 16.9789 65.111 16.9589 65.194C16.9019 65.468 16.8439 65.744 16.7889 66.022C16.7689 66.113 16.7519 66.205 16.7339 66.297C16.6849 66.567 16.6339 66.837 16.5839 67.109C16.5659 67.211 16.5509 67.313 16.5329 67.416C16.4879 67.678 16.4449 67.94 16.4039 68.203C16.3859 68.317 16.3729 68.432 16.3549 68.546C16.3179 68.8 16.2809 69.053 16.2479 69.309C16.2319 69.431 16.2169 69.554 16.2029 69.677C16.1719 69.925 16.1419 70.173 16.1129 70.422C16.1009 70.552 16.0879 70.683 16.0739 70.814C16.0509 71.055 16.0269 71.297 16.0059 71.539C15.9959 71.678 15.9859 71.817 15.9749 71.956C15.9569 72.19 15.9379 72.424 15.9239 72.659C15.9139 72.807 15.9059 72.954 15.8989 73.101C15.8869 73.328 15.8759 73.554 15.8679 73.78C15.8599 73.935 15.8559 74.09 15.8539 74.245C15.8459 74.463 15.8379 74.681 15.8359 74.899C15.8339 75.064 15.8339 75.227 15.8339 75.391C15.8319 75.6 15.8299 75.808 15.8319 76.016C15.8339 76.186 15.8399 76.357 15.8439 76.527C15.8459 76.728 15.8499 76.929 15.8559 77.13C15.8639 77.308 15.8739 77.486 15.8829 77.664C15.8909 77.855 15.8989 78.046 15.9099 78.236C15.9219 78.422 15.9349 78.605 15.9509 78.79C15.9649 78.972 15.9739 79.154 15.9919 79.335C16.0079 79.527 16.0309 79.718 16.0509 79.909C16.0689 80.081 16.0839 80.253 16.1039 80.423C16.1289 80.636 16.1589 80.848 16.1879 81.06C16.2079 81.206 16.2249 81.354 16.2449 81.499C16.2979 81.855 16.3559 82.209 16.4189 82.56C18.9869 96.95 31.9269 101.233 44.9539 101.799C54.8759 102.229 67.0519 103.444 77.7919 101.522C80.5279 109.139 91.6379 107.922 91.6379 107.922C87.3059 105.26 86.3649 101.606 86.2979 99.119C87.3389 98.693 88.3549 98.223 89.3349 97.695C97.4409 93.316 99.7699 83.926 99.7749 75.3Z" fill="#88B1AE"/>
<path d="M162.211 69.349C162.213 69.346 162.215 69.342 162.215 69.338C164.461 63.915 165.231 57.994 164.326 52.347C163.596 47.771 161.765 43.378 158.738 39.576C151.595 30.606 138.322 26.41 126.939 28.881H126.937C126.458 28.985 125.982 29.101 125.509 29.229C125.505 29.23 125.501 29.231 125.501 29.231C125.034 29.357 124.573 29.495 124.116 29.644C124.104 29.648 124.093 29.651 124.083 29.655C123.647 29.798 123.218 29.953 122.792 30.118C122.757 30.131 122.724 30.141 122.69 30.155C122.292 30.31 121.903 30.477 121.514 30.65C121.453 30.677 121.391 30.701 121.328 30.729C120.969 30.893 120.617 31.069 120.265 31.25C120.179 31.294 120.091 31.333 120.005 31.379C119.685 31.549 119.368 31.733 119.052 31.917C118.945 31.98 118.833 32.038 118.726 32.104C118.425 32.286 118.132 32.482 117.839 32.677C117.724 32.754 117.605 32.824 117.491 32.904C117.087 33.182 116.692 33.473 116.305 33.778C103.123 44.151 93.7779 68.255 109.362 79.4C111.114 80.653 113.108 81.738 115.268 82.646C114.705 85.269 113.424 89.66 110.936 91.323C110.936 91.323 120.284 92.041 123.799 85.156C137.668 87.732 154.131 84.272 160.524 72.828C160.811 72.314 161.079 71.791 161.338 71.264C161.395 71.149 161.449 71.034 161.504 70.918C161.754 70.399 161.992 69.877 162.211 69.349Z" fill="#88B1AE"/>
<path d="M232.709 107.519H228.91V86.641C228.91 81.243 226.424 78.541 221.447 78.541C218.791 78.541 215.961 79.259 212.968 80.693C213.599 82.126 213.915 83.814 213.915 85.754V107.519H210.058V86.641C210.058 81.243 207.57 78.541 202.593 78.541C200.695 78.541 198.099 79.173 194.81 80.439C194.892 81.366 194.935 82.02 194.935 82.401V107.518H191.078V82.528C191.078 81.725 190.951 80.356 190.697 78.413C196.179 76.263 200.316 75.187 203.099 75.187C206.683 75.187 209.425 76.16 211.322 78.097C215.373 76.159 218.892 75.187 221.888 75.187C229.103 75.187 232.708 78.71 232.708 85.753V107.519H232.709ZM259.217 75.885L248.651 108.339C247.553 111.673 246.016 114.581 244.034 117.073C241.884 119.811 239.479 121.585 236.821 122.386L235.301 119.349C239.645 117.831 242.809 114.078 244.791 108.089C244.455 108.046 244.16 107.941 243.906 107.771C243.187 107.392 242.619 106.654 242.197 105.558L230.494 75.885H234.857L245.677 104.417H245.804L255.105 75.885H259.217Z" fill="#88B1AE"/>
<path d="M303.703 104.031C303.703 111.099 300.68 116.541 294.635 120.357C289.518 123.425 283.287 124.959 275.938 124.959C268.682 124.959 261.008 123.426 252.917 120.357L257.8 107.24C264.31 110.029 269.892 111.426 274.544 111.426C281.61 111.426 285.148 108.867 285.148 103.752C285.148 100.498 282.496 97.612 277.195 95.103C268.545 91.01 263.707 88.591 262.683 87.847C257.38 83.94 254.73 78.731 254.73 72.22C254.73 65.615 257.662 60.453 263.521 56.732C268.357 53.662 274.031 52.126 280.542 52.126C288.077 52.126 294.774 53.523 300.636 56.313L295.892 69.29C290.216 67.15 285.099 66.081 280.542 66.081C274.774 66.081 271.892 68.174 271.892 72.36C271.892 75.339 274.634 77.94 280.126 80.173C288.495 83.522 293.61 85.847 295.472 87.151C300.959 91.148 303.703 96.776 303.703 104.031Z" fill="#00526C"/>
<path d="M372.77 88.542C372.77 99.146 369.561 107.866 363.143 114.704C356.725 121.54 348.258 124.958 337.747 124.958C327.236 124.958 318.724 121.472 312.216 114.495C305.888 107.798 302.728 99.146 302.728 88.542C302.728 77.938 305.937 69.217 312.355 62.382C318.773 55.544 327.236 52.124 337.748 52.124C348.26 52.124 356.727 55.544 363.144 62.382C369.561 69.217 372.77 77.938 372.77 88.542ZM354.211 88.683C354.211 82.636 353.002 77.66 350.582 73.753C347.699 69.009 343.42 66.636 337.746 66.636C332.072 66.636 327.793 68.963 324.912 73.613C322.49 77.521 321.283 82.543 321.283 88.683C321.283 94.822 322.49 99.798 324.912 103.611C327.793 108.263 332.072 110.588 337.746 110.588C343.42 110.588 347.699 108.264 350.582 103.611C353.002 99.798 354.211 94.822 354.211 88.683Z" fill="#00526C"/>
<path d="M519.408 119.517C507.5 123.146 497.594 124.958 489.687 124.958C481.501 124.958 474.619 123.47 469.039 120.495C461.969 116.682 458.434 111.099 458.434 103.751C458.434 95.659 462.153 89.754 469.596 86.032C472.571 84.544 479.547 82.59 490.526 80.171C497.967 78.498 501.69 76.124 501.69 73.054C501.69 68.777 497.782 66.636 489.969 66.636C483.549 66.636 477.082 68.032 470.574 70.822L464.851 58.127C473.593 54.128 482.755 52.125 492.339 52.125C500.243 52.125 506.478 53.896 511.034 57.428C515.964 61.336 518.43 67.149 518.43 74.87V110.728C518.432 112.496 518.754 115.425 519.408 119.517ZM501.967 109.054C501.779 107.845 501.69 106.96 501.69 106.402V89.242C500.294 90.636 497.317 91.846 492.758 92.868C487.082 94.174 483.502 95.15 482.014 95.799C478.573 97.383 476.852 99.615 476.852 102.495C476.852 108.172 481.176 111.008 489.829 111.008C493.826 111.007 497.873 110.357 501.967 109.054Z" fill="#00526C"/>
<path d="M550.609 122.447C545.771 124.123 541.121 124.959 536.656 124.959C526.424 124.959 521.308 120.123 521.308 110.449V21.012H538.05V106.542C538.05 109.425 539.169 110.868 541.4 110.868C542.517 110.868 544.283 110.356 546.703 109.331L550.609 122.447Z" fill="#00526C"/>
<path d="M431.646 120.076C424.392 123.332 417.226 124.959 410.158 124.959C399.277 124.959 390.228 121.611 383.023 114.912C375.81 108.217 372.209 99.428 372.209 88.543C372.209 77.753 375.58 68.988 382.324 62.241C389.066 55.5 397.834 52.125 408.625 52.125C416.438 52.125 424.111 53.754 431.646 57.011L426.625 70.545C420.02 67.941 414.346 66.637 409.602 66.637C403.649 66.637 398.903 68.709 395.372 72.847C391.835 76.988 390.069 82.078 390.069 88.126C390.069 94.451 391.997 99.754 395.86 104.031C399.717 108.31 404.809 110.449 411.137 110.449C415.323 110.449 420.532 109.287 426.764 106.961L431.646 120.076Z" fill="#00526C"/>
<path d="M455.365 29.802C455.365 32.685 454.365 35.035 452.365 36.847C450.365 38.66 447.922 39.568 445.041 39.568C442.154 39.568 439.76 38.661 437.853 36.847C435.947 35.035 434.994 32.685 434.994 29.802C434.994 27.011 435.947 24.662 437.853 22.755C439.759 20.85 442.154 19.895 445.041 19.895C447.832 19.895 450.25 20.85 452.295 22.755C454.34 24.663 455.365 27.011 455.365 29.802ZM453.691 123.425H436.949V53.661H453.691V123.425Z" fill="#00526C"/>
</svg>
