<svg width="220" height="150" viewBox="0 0 220 150" fill="none" xmlns="http://www.w3.org/2000/svg">
<path d="M34.1066 131.765H32.0172V120.282C32.0172 117.313 30.6493 115.827 27.912 115.827C26.4512 115.827 24.8952 116.222 23.2485 117.011C23.5961 117.799 23.7699 118.727 23.7699 119.794V131.765H21.648V120.282C21.648 117.313 20.2802 115.827 17.5428 115.827C16.4984 115.827 15.0711 116.175 13.2616 116.871C13.3073 117.381 13.3309 117.74 13.3309 117.95V131.765H11.2096V118.02C11.2096 117.579 11.1397 116.826 11 115.757C14.0151 114.575 16.2899 113.983 17.8206 113.983C19.7923 113.983 21.3004 114.518 22.3438 115.583C24.5712 114.517 26.5073 113.983 28.1551 113.983C32.1228 113.983 34.106 115.92 34.106 119.794V131.765H34.1066ZM48.6854 114.366L42.8736 132.216C42.2703 134.05 41.4249 135.649 40.3343 137.02C39.1518 138.526 37.829 139.501 36.3671 139.942L35.5317 138.271C37.9209 137.436 39.661 135.372 40.7512 132.078C40.5658 132.054 40.4036 131.996 40.2639 131.903C39.869 131.695 39.5566 131.289 39.3245 130.686L32.8878 114.366H35.2875L41.2385 130.059H41.3083L46.4233 114.366H48.6854V114.366Z" fill="#88B1AE"/>
<path d="M73.1528 129.846C73.1528 133.734 71.4901 136.727 68.1659 138.826C65.3516 140.513 61.924 141.357 57.8826 141.357C53.8912 141.357 49.6711 140.514 45.2205 138.826L47.9067 131.611C51.4866 133.146 54.5573 133.914 57.1153 133.914C61.0022 133.914 62.9475 132.507 62.9475 129.693C62.9475 127.903 61.4889 126.316 58.5728 124.936C53.8153 122.685 51.1544 121.354 50.5918 120.945C47.6751 118.796 46.2176 115.931 46.2176 112.35C46.2176 108.718 47.8302 105.878 51.0527 103.832C53.7125 102.143 56.8332 101.299 60.4142 101.299C64.5585 101.299 68.2424 102.067 71.4659 103.602L68.8567 110.739C65.7349 109.562 62.9211 108.974 60.4142 108.974C57.2424 108.974 55.6567 110.125 55.6567 112.427C55.6567 114.066 57.1654 115.496 60.1854 116.724C64.7889 118.566 67.6022 119.845 68.6263 120.562C71.6436 122.761 73.1528 125.856 73.1528 129.846Z" fill="#00526C"/>
<path d="M111.14 121.327C111.14 127.16 109.375 131.956 105.845 135.717C102.314 139.477 97.658 141.357 91.877 141.357C86.0959 141.357 81.4143 139.439 77.8344 135.602C74.3545 131.918 72.616 127.16 72.616 121.327C72.616 115.495 74.3809 110.699 77.9108 106.939C81.4407 103.179 86.0959 101.298 91.8775 101.298C97.6591 101.298 102.315 103.179 105.845 106.939C109.375 110.699 111.14 115.495 111.14 121.327ZM100.932 121.405C100.932 118.079 100.267 115.342 98.9362 113.193C97.3506 110.584 94.9971 109.279 91.8764 109.279C88.7557 109.279 86.4023 110.559 84.8172 113.116C83.4856 115.266 82.8218 118.028 82.8218 121.405C82.8218 124.781 83.4856 127.518 84.8172 129.616C86.4023 132.175 88.7557 133.453 91.8764 133.453C94.9971 133.453 97.3506 132.175 98.9362 129.616C100.267 127.518 100.932 124.781 100.932 121.405Z" fill="#00526C"/>
<path d="M191.791 138.364C185.242 140.36 179.793 141.357 175.445 141.357C170.942 141.357 167.157 140.538 164.088 138.902C160.199 136.805 158.255 133.734 158.255 129.693C158.255 125.242 160.301 121.994 164.394 119.947C166.031 119.129 169.868 118.054 175.906 116.723C179.999 115.803 182.046 114.498 182.046 112.809C182.046 110.457 179.896 109.279 175.599 109.279C172.069 109.279 168.512 110.047 164.932 111.582L161.785 104.599C166.593 102.4 171.632 101.298 176.903 101.298C181.25 101.298 184.68 102.272 187.185 104.215C189.897 106.364 191.253 109.561 191.253 113.808V133.53C191.254 134.502 191.431 136.113 191.791 138.364ZM182.197 132.61C182.095 131.945 182.045 131.458 182.045 131.151V121.713C181.277 122.479 179.64 123.145 177.133 123.707C174.011 124.425 172.042 124.962 171.224 125.319C169.331 126.19 168.384 127.418 168.384 129.002C168.384 132.124 170.763 133.684 175.522 133.684C177.72 133.683 179.947 133.326 182.197 132.61Z" fill="#00526C"/>
<path d="M208.952 139.976C206.291 140.898 203.733 141.357 201.277 141.357C195.649 141.357 192.835 138.698 192.835 133.376V84.186H202.044V131.228C202.044 132.814 202.659 133.607 203.887 133.607C204.5 133.607 205.472 133.326 206.803 132.762L208.952 139.976Z" fill="#00526C"/>
<path d="M141.984 58.7402L86.2956 63.0764C82.5215 63.0764 79.4602 66.1377 79.4602 69.9124L83.7964 97.2001C83.7964 100.975 86.8561 104.035 90.6335 104.035L93.2608 104.197C93.2608 104.197 94.8201 110.082 91.7604 113.141C91.7604 113.141 100.874 110.937 102.344 104.756L137.647 106.927C141.421 106.927 144.482 103.866 144.482 100.091L148.82 65.5756C148.82 61.801 145.758 58.7402 141.984 58.7402Z" fill="#88B1AE"/>
<path d="M84.6824 47.0071C84.6824 46.6435 84.6796 46.2838 84.6741 45.928C84.6714 45.8103 84.6675 45.6953 84.6648 45.5782C84.6593 45.3417 84.6554 45.1057 84.6466 44.8725C84.6422 44.7257 84.6345 44.5821 84.6279 44.4364C84.6202 44.2395 84.612 44.0404 84.6015 43.8451C84.5922 43.6823 84.5806 43.5228 84.5696 43.3617C84.5581 43.1879 84.5476 43.0141 84.5344 42.8425C84.5218 42.6703 84.5053 42.502 84.4899 42.3332C84.4756 42.177 84.4624 42.0202 84.4464 41.8657C84.4277 41.6875 84.4068 41.512 84.3876 41.3371C84.37 41.1958 84.354 41.0533 84.3353 40.9142C84.3133 40.7321 84.2864 40.5534 84.2605 40.3752C84.2407 40.2459 84.2226 40.1161 84.2028 39.988C84.1725 39.8043 84.1412 39.6222 84.1093 39.4413C84.0867 39.3236 84.0669 39.2053 84.0444 39.0887C84.0081 38.9017 83.9696 38.7175 83.93 38.5332C83.908 38.4282 83.8854 38.322 83.8618 38.217C83.8183 38.0278 83.7727 37.8408 83.7248 37.6549C83.7012 37.5603 83.677 37.4651 83.6522 37.3711C83.6005 37.1808 83.5466 36.9927 83.4916 36.8057C83.4663 36.721 83.4416 36.6368 83.4152 36.5527C83.3563 36.3607 83.2936 36.171 83.2287 35.9829C83.2023 35.9092 83.1776 35.8349 83.1512 35.7618C83.083 35.5687 83.0104 35.3779 82.9361 35.1898C82.9114 35.1254 82.885 35.0627 82.8586 34.9995C82.7788 34.8048 82.6963 34.6123 82.6105 34.4225C82.5869 34.3703 82.5632 34.318 82.5379 34.2658C82.4477 34.0689 82.3526 33.8747 82.2536 33.6833C82.2327 33.6432 82.2112 33.6041 82.1909 33.564C82.0853 33.3638 81.9769 33.1663 81.862 32.9722C81.8466 32.9452 81.8301 32.9199 81.8147 32.893C81.6937 32.6884 81.5688 32.4865 81.4363 32.2891C81.4297 32.2781 81.422 32.2676 81.4159 32.2566C79.0394 28.6948 75.1162 26.321 68.8627 25.331C59.6552 23.8741 50.3151 23.6486 41.0443 22.8054C35.1455 22.2692 27.4857 21.6983 23.2452 26.7027C22.2865 27.8352 21.4087 29.2206 20.6321 30.7837C20.6305 30.7848 20.6305 30.7859 20.6305 30.787C20.5161 31.0164 20.4055 31.2485 20.2966 31.4844C20.2933 31.491 20.2895 31.4976 20.2867 31.5037C20.1806 31.7358 20.0744 31.9717 19.9721 32.2104C19.9666 32.2209 19.9622 32.2319 19.9589 32.2423C19.8577 32.4772 19.7604 32.7142 19.6641 32.9551C19.6564 32.9722 19.6498 32.9892 19.6432 33.0057C19.5497 33.2417 19.459 33.4798 19.3693 33.7207C19.3594 33.7433 19.3523 33.7664 19.3429 33.7884C19.2555 34.0243 19.1708 34.263 19.0883 34.5034C19.0789 34.5331 19.069 34.5628 19.058 34.5925C18.9777 34.8273 18.9002 35.0649 18.8237 35.3047C18.8116 35.3405 18.8012 35.3768 18.7891 35.4131C18.7154 35.6474 18.6444 35.8833 18.5746 36.122C18.5614 36.1649 18.5498 36.2078 18.5366 36.2513C18.4706 36.4828 18.4046 36.7166 18.3419 36.952C18.3287 37.0031 18.3139 37.0554 18.3012 37.1065C18.2402 37.3353 18.183 37.5647 18.1263 37.7968C18.112 37.8551 18.0966 37.9139 18.0845 37.9728C18.0301 38.1988 17.9778 38.4254 17.9256 38.6526C17.9118 38.7197 17.897 38.7862 17.8821 38.8533C17.8354 39.075 17.7892 39.2977 17.7446 39.521C17.7298 39.5947 17.7149 39.669 17.7012 39.7427C17.6605 39.9605 17.6198 40.1783 17.5796 40.3977C17.5653 40.4797 17.5521 40.5627 17.5378 40.6452C17.5026 40.8564 17.468 41.0682 17.4344 41.2805C17.4201 41.3723 17.408 41.4647 17.3943 41.5571C17.3646 41.7617 17.3349 41.9663 17.3079 42.1726C17.2953 42.271 17.2832 42.37 17.2716 42.4696C17.2463 42.6698 17.2227 42.8694 17.2001 43.0702C17.1897 43.1752 17.1798 43.2808 17.1682 43.3859C17.149 43.5806 17.1308 43.7753 17.1132 43.9705C17.1039 44.0827 17.0962 44.1949 17.0868 44.3071C17.0725 44.4958 17.0571 44.685 17.0461 44.8736C17.039 44.993 17.0329 45.1118 17.0258 45.23C17.0164 45.4126 17.0076 45.5958 16.9999 45.7778C16.9944 45.9032 16.9917 46.0281 16.9889 46.1529C16.9834 46.3289 16.9768 46.5049 16.9757 46.6804C16.9735 46.8129 16.9735 46.9449 16.9735 47.0775C16.9719 47.2458 16.9708 47.4141 16.9719 47.5818C16.9735 47.7193 16.979 47.8568 16.9812 47.9943C16.984 48.156 16.9873 48.3183 16.9922 48.48C16.9977 48.6241 17.0054 48.7671 17.0131 48.9106C17.0203 49.0652 17.0258 49.2192 17.0362 49.3721C17.0456 49.5217 17.0566 49.6702 17.0687 49.8192C17.0797 49.9661 17.0885 50.1129 17.1017 50.2592C17.1149 50.4143 17.1336 50.5678 17.1495 50.7223C17.1638 50.8609 17.1759 50.9995 17.1913 51.137C17.2128 51.3092 17.2364 51.4797 17.2601 51.6507C17.2755 51.769 17.2892 51.8878 17.3063 52.0055C17.3481 52.2926 17.3948 52.578 17.446 52.8607C19.5184 64.4679 29.9552 67.9225 40.4629 68.3801C48.4665 68.7266 58.289 69.7067 66.952 68.1568C69.1597 74.3008 78.1209 73.3196 78.1209 73.3196C74.6262 71.1713 73.8666 68.225 73.8138 66.2191C74.652 65.8754 75.4721 65.4964 76.2624 65.0702C82.7997 61.5403 84.6785 53.9651 84.6824 47.0071Z" fill="#88B1AE"/>
<path d="M135.045 42.2067C135.047 42.2039 135.049 42.2012 135.05 42.1979C136.86 37.8232 137.482 33.047 136.753 28.4924C136.163 24.8008 134.687 21.2572 132.245 18.1915C126.484 10.9557 115.778 7.57097 106.596 9.56417C106.596 9.56417 106.594 9.56417 106.594 9.56472C106.207 9.64887 105.823 9.74182 105.442 9.84522C105.439 9.84577 105.436 9.84632 105.434 9.84687C105.059 9.94862 104.686 10.0603 104.318 10.1802C104.309 10.1835 104.3 10.1862 104.29 10.189C103.939 10.3039 103.593 10.4293 103.249 10.5624C103.221 10.5729 103.194 10.5811 103.168 10.5921C102.847 10.717 102.533 10.8517 102.219 10.992C102.17 11.014 102.119 11.0332 102.07 11.0558C101.78 11.1878 101.496 11.3302 101.213 11.4754C101.143 11.5112 101.071 11.5425 101.003 11.5794C100.744 11.7169 100.489 11.8648 100.234 12.0133C100.147 12.0645 100.058 12.1112 99.9702 12.1635C99.7277 12.3103 99.4923 12.4682 99.2552 12.6255C99.1623 12.6876 99.066 12.7443 98.9742 12.8086C98.6486 13.0336 98.3296 13.2679 98.0177 13.5137C87.3851 21.8803 79.8474 41.3239 92.4171 50.3142C93.8306 51.3251 95.4388 52.2002 97.1823 52.9322C96.728 55.0481 95.6945 58.5901 93.6876 59.9315C93.6876 59.9315 101.228 60.5107 104.063 54.9579C115.25 57.0352 128.53 54.2445 133.687 45.0133C133.918 44.5986 134.134 44.1768 134.343 43.7516C134.389 43.6587 134.433 43.5663 134.477 43.4728C134.678 43.0548 134.869 42.6335 135.045 42.2067Z" fill="#88B1AE"/>
<path d="M143.522 138.671C139.532 140.463 135.591 141.357 131.703 141.357C125.718 141.357 120.742 139.516 116.779 135.832C112.812 132.149 110.832 127.315 110.832 121.328C110.832 115.394 112.685 110.573 116.395 106.862C120.103 103.154 124.925 101.298 130.86 101.298C135.157 101.298 139.378 102.194 143.522 103.985L140.76 111.429C137.127 109.997 134.006 109.28 131.398 109.28C128.123 109.28 125.513 110.419 123.571 112.695C121.625 114.973 120.654 117.772 120.654 121.099C120.654 124.577 121.715 127.494 123.839 129.846C125.961 132.2 128.762 133.376 132.241 133.376C134.544 133.376 137.409 132.738 140.836 131.458L143.522 138.671Z" fill="#00526C"/>
<path d="M156.567 89.0205C156.567 90.6061 156.017 91.8986 154.917 92.8952C153.817 93.8924 152.474 94.3917 150.889 94.3917C149.301 94.3917 147.985 93.8929 146.936 92.8952C145.887 91.8986 145.363 90.6061 145.363 89.0205C145.363 87.4854 145.887 86.1934 146.936 85.1446C147.984 84.0968 149.301 83.5716 150.889 83.5716C152.424 83.5716 153.754 84.0968 154.879 85.1446C156.003 86.1934 156.567 87.4854 156.567 89.0205ZM155.647 140.513H146.438V102.142H155.647V140.513Z" fill="#00526C"/>
</svg>
